<?xml version="1.0" encoding="UTF-8" standalone="no"?>
<svg
   xmlns:dc="http://purl.org/dc/elements/1.1/"
   xmlns:cc="http://creativecommons.org/ns#"
   xmlns:rdf="http://www.w3.org/1999/02/22-rdf-syntax-ns#"
   xmlns:svg="http://www.w3.org/2000/svg"
   xmlns="http://www.w3.org/2000/svg"
   xmlns:sodipodi="http://sodipodi.sourceforge.net/DTD/sodipodi-0.dtd"
   xmlns:inkscape="http://www.inkscape.org/namespaces/inkscape"
   version="1.0"
   width="604px"
   height="637px"
   viewBox="0 0 6040 6370"
   preserveAspectRatio="xMidYMid meet"
   id="svg2"
   inkscape:version="0.91 r13725"
   sodipodi:docname="logo.svg">
  <metadata
     id="metadata56">
    <rdf:RDF>
      <cc:Work
         rdf:about="">
        <dc:format>image/svg+xml</dc:format>
        <dc:type
           rdf:resource="http://purl.org/dc/dcmitype/StillImage" />
        <dc:title />
      </cc:Work>
    </rdf:RDF>
  </metadata>
  <defs
     id="defs54" />
  <sodipodi:namedview
     pagecolor="#ffffff"
     bordercolor="#666666"
     borderopacity="1"
     objecttolerance="10"
     gridtolerance="10"
     guidetolerance="10"
     inkscape:pageopacity="0"
     inkscape:pageshadow="2"
     inkscape:window-width="1535"
     inkscape:window-height="876"
     id="namedview52"
     showgrid="false"
     inkscape:zoom="0.37048666"
     inkscape:cx="-97.474573"
     inkscape:cy="318.5"
     inkscape:window-x="65"
     inkscape:window-y="24"
     inkscape:window-maximized="1"
     inkscape:current-layer="svg2" />
  <g
     fill="#010101"
     stroke="none"
     id="g4"
     style="fill:#c87021;fill-opacity:1">
    <path
       d="M2720 6194 c-120 -22 -140 -40 -140 -129 0 -108 -54 -292 -93 -317 -25 -16 -76 -9 -87 12 -14 26 -5 42 46 78 88 64 53 175 -56 175 -53 0 -99 -30 -138 -88 -63 -96 -66 -183 -8 -241 24 -24 49 -35 108 -49 70 -17 98 -18 287 -9 271 12 277 16 308 187 10 58 13 118 9 203 -6 139 -10 152 -44 165 -29 11 -155 20 -192 13z"
       id="path6"
       style="fill:#c87021;fill-opacity:1" />
    <path
       d="M3056 6167 c-35 -35 -57 -147 -57 -287 0 -134 5 -166 34 -198 56 -61 306 -67 426 -10 51 24 71 63 71 135 0 59 -26 110 -71 141 -29 20 -41 22 -87 16 l-55 -7 7 85 c6 65 4 87 -6 95 -17 14 -170 53 -208 53 -19 0 -40 -9 -54 -23z m337 -328 c41 -34 44 -41 21 -63 -37 -38 -104 1 -104 61 0 28 4 33 23 33 12 0 39 -14 60 -31z"
       id="path8"
       style="fill:#c87021;fill-opacity:1" />
    <path
       d="M2104 6095 c-314 -87 -614 -241 -869 -445 -124 -99 -274 -239 -291 -272 -47 -91 16 -166 222 -265 107 -52 125 -58 181 -57 85 1 149 35 259 136 49 45 126 106 172 135 76 50 351 193 370 193 13 0 42 34 42 49 0 7 -32 48 -72 92 l-72 79 -40 -24 c-23 -12 -97 -56 -166 -96 -252 -147 -414 -214 -434 -181 -16 25 314 240 549 360 88 44 107 59 160 122 33 39 88 98 123 130 35 33 60 64 57 69 -11 17 -66 10 -191 -25z"
       id="path10"
       style="fill:#c87021;fill-opacity:1" />
    <path
       d="M3526 6109 c-32 -25 -33 -49 -2 -115 43 -93 115 -130 326 -168 80 -15 198 -40 262 -57 127 -33 139 -32 177 17 12 15 21 36 21 47 0 77 -258 191 -618 272 -134 30 -133 30 -166 4z"
       id="path12"
       style="fill:#c87021;fill-opacity:1" />
    <path
       d="M4404 5765 c-15 -21 -53 -48 -92 -67 -65 -32 -70 -33 -192 -33 -116 1 -131 3 -215 34 -225 82 -293 74 -364 -43 -27 -46 -31 -59 -21 -71 7 -8 19 -15 26 -15 45 0 466 -146 616 -214 l57 -25 61 31 c80 40 204 161 258 254 23 38 42 77 42 85 0 27 -71 81 -122 93 -23 5 -31 0 -54 -29z"
       id="path14"
       style="fill:#c87021;fill-opacity:1" />
    <path
       d="M4618 5568 c-156 -167 -207 -229 -213 -260 -9 -45 14 -100 51 -124 55 -36 190 -182 251 -270 77 -113 121 -201 168 -339 21 -60 46 -119 57 -130 18 -20 19 -20 51 -1 18 11 74 41 124 68 51 27 95 53 98 57 2 5 -8 26 -23 47 -16 22 -104 152 -197 289 -93 138 -182 270 -199 295 -41 60 -48 154 -17 225 12 26 21 57 21 70 0 26 -92 105 -122 105 -11 0 -34 -15 -50 -32z"
       id="path16"
       style="fill:#c87021;fill-opacity:1" />
    <path
       d="M4861 5354 c-36 -45 -4 -136 77 -225 108 -119 339 -460 476 -706 31 -56 64 -104 72 -107 24 -9 69 16 72 40 2 12 -18 84 -43 160 -120 356 -300 639 -521 815 -71 56 -103 62 -133 23z"
       id="path18"
       style="fill:#c87021;fill-opacity:1" />
    <path
       d="M769 5169 c-67 -72 -63 -158 11 -230 63 -61 74 -97 68 -223 -5 -87 -13 -124 -57 -258 -28 -87 -51 -167 -51 -178 0 -11 10 -26 23 -34 37 -24 144 -56 187 -56 50 0 40 -21 191 387 l110 296 -16 51 c-20 68 -81 137 -160 181 -57 32 -230 94 -263 95 -8 0 -27 -14 -43 -31z"
       id="path20"
       style="fill:#c87021;fill-opacity:1" />
    <path
       d="M617 4879 c-79 -52 -131 -136 -192 -309 -105 -301 -101 -475 13 -590 l44 -45 53 56 c79 86 153 257 215 499 52 201 62 317 32 363 -44 65 -94 74 -165 26z"
       id="path22"
       style="fill:#c87021;fill-opacity:1" />
    <path
       d="M5114 4449 c-66 -19 -124 -145 -132 -286 -6 -112 10 -165 67 -216 33 -29 49 -36 117 -46 139 -19 257 -31 323 -31 57 0 68 3 93 27 23 22 28 35 28 75 0 56 -27 116 -66 147 -22 17 -39 20 -117 19 -100 -1 -161 12 -220 45 -46 26 -80 77 -75 114 2 24 8 29 36 31 42 4 72 -21 72 -59 0 -33 50 -68 109 -76 72 -10 103 54 60 123 -65 106 -192 163 -295 133z"
       id="path24"
       style="fill:#c87021;fill-opacity:1" />
    <path
       d="M695 4138 c-16 -6 -40 -20 -52 -31 -52 -47 -10 -149 54 -132 15 3 42 7 58 8 27 2 30 -1 30 -28 0 -49 -35 -59 -211 -60 -167 -1 -187 -7 -224 -68 -23 -37 -27 -134 -7 -160 9 -13 50 -19 196 -32 201 -18 270 -15 320 16 54 32 66 75 66 229 0 125 -2 138 -25 180 -41 73 -126 106 -205 78z"
       id="path26"
       style="fill:#c87021;fill-opacity:1" />
    <path
       d="M5039 3806 c-83 -79 -93 -273 -22 -422 53 -113 152 -160 251 -118 74 30 122 95 122 162 0 56 -25 83 -81 89 -41 5 -48 2 -67 -22 -12 -15 -22 -34 -22 -41 0 -19 -44 -46 -63 -38 -56 21 -17 128 61 168 73 37 128 30 235 -33 125 -74 156 -65 176 50 14 82 13 134 -2 179 l-12 35 -190 12 c-104 6 -226 12 -271 12 -79 1 -82 0 -115 -33z"
       id="path28"
       style="fill:#c87021;fill-opacity:1" />
    <path
       d="M411 3575 c-30 -9 -60 -20 -68 -26 -36 -31 -41 -184 -8 -249 21 -41 47 -55 137 -76 l76 -17 -31 -21 c-18 -12 -37 -33 -44 -46 -27 -54 -9 -165 35 -213 60 -66 189 -76 278 -21 53 32 107 103 124 162 6 20 13 72 17 114 14 179 -54 324 -180 379 -68 29 -252 37 -336 14z m289 -418 c55 -27 72 -63 46 -101 -11 -18 -25 -26 -46 -26 -27 0 -29 4 -40 54 -6 30 -21 67 -32 82 l-21 26 24 -7 c13 -4 44 -16 69 -28z"
       id="path30"
       style="fill:#c87021;fill-opacity:1" />
    <path
       d="M5495 3414 c-64 -69 -114 -325 -115 -594 -1 -52 -6 -124 -13 -160 -10 -54 -16 -66 -33 -68 -20 -3 -21 3 -27 95 -4 54 -7 169 -7 255 l0 158 -37 18 c-48 24 -193 57 -203 45 -4 -4 -13 -57 -19 -118 -17 -147 -44 -278 -86 -406 -43 -131 -44 -171 -7 -230 79 -122 316 -303 356 -270 27 22 122 228 170 369 94 273 128 454 129 693 0 146 -1 159 -22 188 -36 50 -57 56 -86 25z"
       id="path32"
       style="fill:#c87021;fill-opacity:1" />
    <path
       d="M367 3042 c-20 -22 -22 -87 -6 -230 33 -302 126 -559 296 -817 109 -165 153 -200 226 -176 37 13 81 54 91 87 8 26 -74 195 -169 349 -248 402 -268 439 -341 635 -34 90 -66 166 -71 167 -5 2 -17 -5 -26 -15z"
       id="path34"
       style="fill:#c87021;fill-opacity:1" />
    <path
       d="M816 2775 c-88 -37 -97 -48 -90 -109 16 -148 51 -230 183 -434 110 -169 128 -207 140 -296 l10 -67 -40 -52 c-43 -57 -63 -113 -53 -151 7 -29 92 -112 129 -126 39 -15 66 4 195 137 165 168 174 182 167 243 -8 64 -62 168 -132 253 -109 132 -307 422 -373 545 -28 53 -49 82 -60 82 -9 -1 -44 -12 -76 -25z"
       id="path36"
       style="fill:#c87021;fill-opacity:1" />
    <path
       d="M4658 2174 c-183 -176 -307 -265 -503 -362 -109 -54 -286 -119 -375 -137 -36 -7 -70 -31 -70 -48 0 -5 16 -28 36 -49 41 -46 73 -111 74 -149 0 -14 9 -34 19 -43 23 -21 43 -16 186 46 126 56 240 121 465 268 107 70 209 134 225 143 89 45 274 64 363 37 39 -12 45 -12 70 7 31 23 72 80 72 100 0 25 -222 243 -299 294 -41 27 -80 49 -87 49 -7 0 -86 -70 -176 -156z"
       id="path38"
       style="fill:#c87021;fill-opacity:1" />
    <path
       d="M1540 1797 c-55 -27 -252 -216 -274 -262 -26 -55 -21 -100 18 -142 l33 -36 47 13 c26 7 106 48 178 91 73 44 140 79 150 79 11 0 88 -20 172 -44 177 -51 275 -73 372 -82 l69 -6 42 40 c51 50 73 90 76 139 l2 37 -205 52 c-113 28 -278 72 -367 97 -186 54 -245 58 -313 24z"
       id="path40"
       style="fill:#c87021;fill-opacity:1" />
    <path
       d="M4836 1780 c-38 -22 -133 -85 -210 -138 -189 -131 -226 -154 -331 -203 -218 -100 -548 -221 -686 -250 -69 -14 -79 -23 -79 -68 0 -66 15 -75 111 -68 48 3 68 2 46 -2 -21 -5 -43 -13 -49 -19 -8 -8 -6 -82 6 -268 9 -142 15 -259 13 -260 -2 -2 -54 -11 -117 -19 -155 -22 -619 -31 -787 -16 -186 18 -494 77 -514 99 -4 4 2 59 12 122 25 160 35 316 21 333 -9 11 9 12 106 10 129 -4 156 3 181 49 14 24 14 28 -2 46 -10 11 -32 23 -49 26 -47 9 -123 62 -176 122 -45 51 -51 55 -147 81 -82 22 -121 27 -215 28 -100 0 -120 -3 -157 -23 -23 -12 -48 -22 -55 -22 -7 0 -25 20 -40 43 -15 24 -37 52 -48 62 -19 17 -20 17 -51 -16 -42 -45 -59 -87 -59 -147 0 -59 9 -69 112 -117 85 -39 218 -77 333 -96 41 -6 75 -15 75 -18 0 -3 -9 -53 -21 -111 -40 -208 -60 -433 -43 -497 19 -70 385 -199 677 -240 164 -22 504 -22 682 1 208 27 516 93 539 116 8 8 11 110 11 328 0 256 -3 326 -16 362 l-15 45 -74 3 -75 4 135 28 c324 67 559 178 880 414 183 135 220 175 220 239 0 23 -48 77 -68 77 -4 0 -38 -18 -76 -40z"
       id="path42"
       style="fill:#c87021;fill-opacity:1" />
    <path
       d="M3260 1615 c-119 -34 -189 -101 -210 -201 -7 -31 -10 -113 -8 -189 3 -126 4 -135 28 -160 25 -27 26 -27 125 -22 95 5 155 18 183 40 8 7 12 45 12 128 0 137 15 191 61 214 66 35 85 2 34 -58 -42 -48 -47 -95 -14 -128 56 -56 211 38 240 145 6 23 9 61 6 86 -6 55 -51 99 -136 131 -74 29 -242 36 -321 14z"
       id="path44"
       style="fill:#c87021;fill-opacity:1" />
    <path
       d="M2621 1579 c-74 -13 -148 -55 -180 -103 -39 -59 -37 -139 4 -198 34 -48 102 -88 151 -88 20 0 44 10 63 26 59 49 35 117 -58 166 -21 12 -31 24 -29 35 5 25 33 28 83 8 73 -27 83 -89 35 -225 -17 -46 -30 -92 -30 -102 0 -28 58 -51 141 -56 91 -5 139 8 174 49 24 29 25 36 25 163 0 207 -32 278 -138 309 -69 21 -175 28 -241 16z"
       id="path46"
       style="fill:#c87021;fill-opacity:1" />
  </g>
  <g
     fill="#b11317"
     stroke="none"
     id="g48"
     style="fill:#af3e34;fill-opacity:1">
    <path
       d="M2655 5499 c-210 -16 -448 -73 -603 -145 -101 -46 -290 -160 -392 -235 -127 -93 -294 -266 -373 -385 -180 -271 -276 -620 -297 -1080 -18 -406 19 -731 111 -962 233 -586 713 -940 1424 -1048 162 -25 547 -25 755 0 562 66 989 255 1237 545 174 204 266 405 328 715 143 716 103 1279 -122 1706 -294 559 -805 828 -1693 890 -162 11 -216 11 -375 -1z m629 -299 c344 -88 610 -345 708 -685 33 -115 33 -317 -1 -425 -75 -242 -284 -496 -479 -582 -230 -102 -428 -44 -662 191 -137 138 -200 270 -200 418 0 178 141 397 310 481 232 115 509 52 605 -138 72 -144 53 -350 -41 -443 -117 -116 -298 -115 -415 2 -90 89 -88 226 4 281 70 43 110 23 138 -70 27 -91 53 -124 88 -115 36 9 88 62 102 102 23 70 -16 140 -101 184 -64 34 -166 34 -233 0 -64 -33 -152 -127 -184 -197 -50 -110 -16 -232 97 -344 67 -66 144 -106 238 -122 245 -42 506 149 577 422 22 83 23 226 2 307 -72 278 -342 486 -662 509 -396 29 -705 -343 -705 -850 l0 -99 -36 6 c-74 12 -131 80 -160 192 -16 59 -18 270 -3 335 26 120 114 293 199 393 120 143 289 237 476 267 82 13 249 3 338 -20z m-1023 -1202 c34 -12 49 -35 49 -75 0 -37 -72 -90 -183 -135 -128 -51 -211 -96 -362 -197 -171 -115 -266 -161 -330 -161 -25 0 -55 5 -66 10 -49 27 -63 122 -30 197 47 102 361 294 572 348 132 34 274 40 350 13z m1910 -199 c161 -81 358 -354 361 -499 2 -88 -59 -138 -154 -127 -62 8 -100 29 -166 91 -110 103 -204 254 -237 381 -22 85 -19 118 11 154 36 43 100 43 185 0z m-1613 -159 c71 -41 70 -65 -8 -160 -20 -25 -96 -135 -169 -245 -74 -110 -170 -247 -215 -304 -44 -57 -100 -129 -124 -160 -94 -123 -144 -159 -206 -147 -64 12 -105 95 -85 171 22 80 96 199 217 347 38 46 110 144 161 215 107 154 176 232 245 279 66 44 111 45 184 4z m311 -171 c30 -33 51 -83 51 -124 0 -20 -18 -89 -39 -153 -22 -65 -76 -252 -120 -417 -131 -479 -230 -755 -288 -792 -33 -22 -94 -21 -128 1 -38 25 -65 87 -65 150 0 162 82 425 228 736 115 243 206 442 229 497 25 62 75 123 100 123 7 0 21 -10 32 -21z m439 -93 c15 -8 41 -29 59 -48 96 -100 112 -283 63 -723 -23 -207 -24 -279 -9 -427 21 -198 -7 -278 -93 -264 -89 14 -200 99 -233 178 -50 120 -36 413 40 854 13 77 29 188 34 246 6 62 18 123 30 151 18 41 24 47 51 47 17 0 43 -6 58 -14z"
       id="path50"
       style="fill:#af3e34;fill-opacity:1" />
  </g>
</svg>
